<?xml version="1.0" standalone="no"?>
<!DOCTYPE svg PUBLIC "-//W3C//DTD SVG 20010904//EN"
 "http://www.w3.org/TR/2001/REC-SVG-20010904/DTD/svg10.dtd">
<svg version="1.0" xmlns="http://www.w3.org/2000/svg"
 width="200.000000pt" height="64.000000pt" viewBox="0 0 200.000000 64.000000"
 preserveAspectRatio="xMidYMid meet">

<g transform="translate(0.000000,64.000000) scale(0.100000,-0.100000)"
fill="darkcyan" stroke="none">
<path d="M522 544 c-12 -8 -29 -28 -37 -45 -14 -25 -21 -29 -60 -29 -81 0
-104 -50 -56 -119 10 -14 16 -32 14 -39 -3 -7 1 -10 9 -7 7 3 25 -6 41 -20 30
-29 37 -79 12 -89 -26 -10 -77 6 -82 26 -3 10 -9 18 -14 18 -13 0 -11 -13 5
-35 11 -15 26 -20 65 -20 39 0 52 -4 56 -17 22 -66 89 -90 122 -42 10 14 25
33 33 43 8 9 15 33 16 54 0 28 8 46 28 65 l27 27 21 -25 c15 -19 19 -34 15
-65 -5 -37 -5 -39 9 -20 17 23 12 58 -15 96 -18 24 -18 26 -1 50 50 68 31 110
-54 119 -31 3 -56 3 -56 0 0 -4 -17 -12 -37 -19 -31 -10 -44 -10 -70 1 l-32
14 16 32 c9 18 26 35 39 38 13 3 24 10 24 15 0 13 -13 11 -38 -7z m-62 -114
c0 -19 -11 -41 -30 -62 l-30 -33 -20 25 c-24 31 -26 76 -2 89 9 6 32 11 50 11
29 0 32 -3 32 -30z m261 20 c25 -14 24 -58 -1 -90 l-20 -25 -30 33 c-19 21
-30 43 -30 62 0 27 3 30 31 30 17 0 39 -5 50 -10z m-206 -9 c18 -7 17 -9 -13
-25 -31 -16 -32 -16 -32 2 0 31 10 36 45 23z m113 -19 c4 -26 -1 -27 -35 -5
-23 16 -24 17 -7 24 27 11 39 5 42 -19z m-27 -25 c31 -21 34 -27 34 -72 0 -48
-1 -50 -42 -73 l-43 -23 -42 23 c-42 23 -43 25 -43 73 0 45 3 51 34 72 43 29
59 29 102 0z m-151 -74 c0 -36 0 -36 -20 -18 -19 17 -19 19 -4 37 23 24 24 24
24 -19z m224 19 c15 -18 15 -20 -4 -37 -20 -18 -20 -18 -20 18 0 43 1 43 24
19z m-173 -102 c24 -14 24 -26 0 -33 -18 -4 -31 10 -31 34 0 12 7 11 31 -1z
m129 -9 c0 -26 -10 -31 -40 -19 l-25 9 25 14 c34 19 40 18 40 -4z m-37 -34
l28 -12 -23 -35 c-16 -24 -31 -35 -48 -35 -17 0 -32 11 -48 35 l-23 35 28 12
c35 15 51 15 86 0z"/>
<path d="M519 344 c-17 -21 0 -49 31 -49 31 0 48 28 31 49 -8 9 -21 16 -31 16
-10 0 -23 -7 -31 -16z m51 -19 c0 -8 -9 -15 -20 -15 -11 0 -20 7 -20 15 0 8 9
15 20 15 11 0 20 -7 20 -15z"/>
<path d="M582 541 c-21 -13 -10 -46 16 -49 27 -4 40 22 22 43 -14 17 -20 18
-38 6z m28 -20 c0 -6 -4 -13 -10 -16 -5 -3 -10 1 -10 9 0 9 5 16 10 16 6 0 10
-4 10 -9z"/>
<path d="M1497 503 c-4 -3 -7 -14 -7 -23 0 -11 -11 -20 -30 -23 -20 -5 -31
-14 -36 -31 -11 -47 30 -86 76 -71 18 6 20 15 20 81 0 68 -6 85 -23 67z m-7
-93 c0 -20 -5 -30 -15 -30 -18 0 -30 24 -21 45 10 28 36 17 36 -15z"/>
<path d="M850 481 c0 -6 13 -11 30 -13 l30 -3 -30 -45 c-42 -62 -39 -70 20
-70 38 0 50 4 50 15 0 10 -10 15 -30 15 -37 0 -37 7 0 50 42 50 39 60 -20 60
-27 0 -50 -4 -50 -9z"/>
<path d="M986 444 c-35 -35 1 -102 50 -92 32 6 28 28 -5 28 -17 0 -31 5 -31
10 0 6 16 10 36 10 32 0 35 2 28 23 -12 39 -50 50 -78 21z m49 -14 c3 -5 -3
-10 -15 -10 -12 0 -18 5 -15 10 3 6 10 10 15 10 5 0 12 -4 15 -10z"/>
<path d="M1097 453 c-4 -3 -7 -28 -7 -55 0 -36 4 -48 15 -48 11 0 15 12 15 46
0 57 23 56 30 -1 3 -21 11 -40 18 -43 16 -5 17 79 0 96 -13 13 -60 16 -71 5z"/>
<path d="M1222 448 c-7 -7 -12 -27 -12 -45 0 -26 6 -36 24 -45 27 -12 65 -3
50 11 -5 5 -18 11 -29 13 -27 5 -26 40 3 53 12 5 22 13 22 17 0 13 -45 9 -58
-4z"/>
<path d="M1317 442 c-23 -26 -21 -58 5 -76 28 -20 43 -20 62 0 32 31 10 94
-33 94 -10 0 -25 -8 -34 -18z m51 -35 c3 -22 -1 -27 -17 -27 -15 0 -21 6 -21
23 0 46 33 49 38 4z"/>
<path d="M1554 435 c-13 -21 -15 -31 -6 -50 12 -25 52 -42 71 -30 19 11 12 25
-13 25 -14 0 -28 5 -31 10 -4 6 8 10 29 10 38 0 43 8 26 41 -15 28 -56 24 -76
-6z m51 -5 c3 -5 -3 -10 -15 -10 -12 0 -18 5 -15 10 3 6 10 10 15 10 5 0 12
-4 15 -10z"/>
<path d="M1670 405 c0 -30 5 -55 10 -55 6 0 10 18 10 41 0 32 4 42 20 46 30 8
24 23 -10 23 -30 0 -30 -1 -30 -55z"/>
<path d="M1130 251 c0 -69 6 -91 27 -91 10 0 13 6 9 16 -3 9 -6 42 -6 75 0 46
-3 59 -15 59 -12 0 -15 -13 -15 -59z"/>
<path d="M1197 304 c-8 -8 1 -24 14 -24 5 0 9 7 9 15 0 15 -12 20 -23 9z"/>
<path d="M871 274 c-26 -34 -27 -68 -1 -94 60 -60 153 21 103 88 -29 39 -74
41 -102 6z m84 -24 c9 -28 -3 -58 -26 -65 -37 -12 -60 26 -43 69 9 24 61 21
69 -4z"/>
<path d="M340 275 c0 -8 9 -15 20 -15 11 0 20 7 20 15 0 8 -9 15 -20 15 -11 0
-20 -7 -20 -15z"/>
<path d="M1028 263 c-24 -6 -26 -103 -3 -103 11 0 15 11 15 40 0 29 4 40 15
40 11 0 15 -11 15 -40 0 -29 4 -40 15 -40 24 0 21 86 -4 100 -20 10 -25 11
-53 3z"/>
<path d="M1268 263 c-24 -6 -26 -103 -3 -103 11 0 15 11 15 40 0 29 4 40 15
40 11 0 15 -11 15 -40 0 -29 4 -40 15 -40 24 0 21 86 -4 100 -20 10 -25 11
-53 3z"/>
<path d="M1400 263 c-8 -3 -18 -11 -22 -17 -12 -17 -9 -61 4 -74 14 -14 68
-16 68 -2 0 6 -9 10 -19 10 -11 0 -23 5 -26 10 -4 6 7 10 24 10 24 0 31 4 31
19 0 19 -25 52 -38 50 -4 0 -14 -3 -22 -6z m30 -33 c0 -5 -7 -10 -15 -10 -8 0
-15 5 -15 10 0 6 7 10 15 10 8 0 15 -4 15 -10z"/>
<path d="M1190 210 c0 -38 4 -50 15 -50 11 0 15 12 15 50 0 38 -4 50 -15 50
-11 0 -15 -12 -15 -50z"/>
<path d="M667 196 c-7 -17 18 -40 33 -31 5 3 10 15 10 26 0 23 -35 27 -43 5z"/>
</g>
</svg>
